<mxfile host="Electron" agent="Mozilla/5.0 (Windows NT 10.0; Win64; x64) AppleWebKit/537.36 (KHTML, like Gecko) draw.io/25.0.1 Chrome/128.0.6613.186 Electron/32.2.6 Safari/537.36" version="25.0.1">
  <diagram name="Page-1" id="3GEkO5FOoxIme9ChC1EM">
    <mxGraphModel dx="1036" dy="606" grid="1" gridSize="10" guides="1" tooltips="1" connect="1" arrows="1" fold="1" page="1" pageScale="1" pageWidth="850" pageHeight="1100" math="0" shadow="0">
      <root>
        <mxCell id="0" />
        <mxCell id="1" parent="0" />
        <mxCell id="QpEi8Tok9MTBgcFl2BzZ-1" value="Dodavanje, uklanjanje i prikaz liste za&amp;nbsp;훾itanje" style="ellipse;whiteSpace=wrap;html=1;fontSize=14;" vertex="1" parent="1">
          <mxGeometry x="20" y="260" width="360" height="80" as="geometry" />
        </mxCell>
        <mxCell id="QpEi8Tok9MTBgcFl2BzZ-2" value="Dodavanje knjige na listu za&amp;nbsp;훾itanje" style="ellipse;whiteSpace=wrap;html=1;fontSize=14;" vertex="1" parent="1">
          <mxGeometry x="460" y="140" width="290" height="80" as="geometry" />
        </mxCell>
        <mxCell id="QpEi8Tok9MTBgcFl2BzZ-3" value="Uklanjanje knjige sa liste za&amp;nbsp;훾itanje" style="ellipse;whiteSpace=wrap;html=1;fontSize=14;" vertex="1" parent="1">
          <mxGeometry x="530" y="260" width="290" height="80" as="geometry" />
        </mxCell>
        <mxCell id="QpEi8Tok9MTBgcFl2BzZ-4" value="Prikaz liste za&amp;nbsp;훾itanje" style="ellipse;whiteSpace=wrap;html=1;fontSize=14;" vertex="1" parent="1">
          <mxGeometry x="445" y="390" width="320" height="80" as="geometry" />
        </mxCell>
        <mxCell id="QpEi8Tok9MTBgcFl2BzZ-5" value="" style="endArrow=classic;html=1;rounded=0;entryX=0;entryY=0.5;entryDx=0;entryDy=0;" edge="1" parent="1" source="QpEi8Tok9MTBgcFl2BzZ-1" target="QpEi8Tok9MTBgcFl2BzZ-2">
          <mxGeometry width="50" height="50" relative="1" as="geometry">
            <mxPoint x="400" y="340" as="sourcePoint" />
            <mxPoint x="450" y="290" as="targetPoint" />
          </mxGeometry>
        </mxCell>
        <mxCell id="QpEi8Tok9MTBgcFl2BzZ-6" value="" style="endArrow=classic;html=1;rounded=0;entryX=0;entryY=0.5;entryDx=0;entryDy=0;" edge="1" parent="1" source="QpEi8Tok9MTBgcFl2BzZ-1" target="QpEi8Tok9MTBgcFl2BzZ-3">
          <mxGeometry width="50" height="50" relative="1" as="geometry">
            <mxPoint x="400" y="340" as="sourcePoint" />
            <mxPoint x="450" y="290" as="targetPoint" />
          </mxGeometry>
        </mxCell>
        <mxCell id="QpEi8Tok9MTBgcFl2BzZ-7" value="" style="endArrow=classic;html=1;rounded=0;entryX=0;entryY=0.5;entryDx=0;entryDy=0;exitX=1;exitY=1;exitDx=0;exitDy=0;" edge="1" parent="1" source="QpEi8Tok9MTBgcFl2BzZ-1" target="QpEi8Tok9MTBgcFl2BzZ-4">
          <mxGeometry width="50" height="50" relative="1" as="geometry">
            <mxPoint x="390" y="310" as="sourcePoint" />
            <mxPoint x="540" y="310" as="targetPoint" />
          </mxGeometry>
        </mxCell>
      </root>
    </mxGraphModel>
  </diagram>
</mxfile>
